<?xml version="1.0" encoding="UTF-8"?>
<svg version="1.1" xmlns="http://www.w3.org/2000/svg" width="500" height="500">
<path d="M0 0 C-0.28875 1.0415625 -0.5775 2.083125 -0.875 3.15625 C-4.14946777 15.54183695 -6.98919742 28.90745907 -1.19921875 41.015625 C1.81935753 46.01053298 5.57843191 48.93980413 11 51 C16.90114333 51.76496302 21.18154067 50.30315198 26 47 C29.67018191 42.84046051 30.12115417 37.32477182 31 32 C31.66 32 32.32 32 33 32 C38.62058701 38.77352794 40.44761589 46.30220885 40 55 C39.13587198 59.20160433 37.93947585 63.31426686 36.77734375 67.44140625 C35.30608719 72.93129502 34.18974988 78.3019708 35 84 C36.79393668 86.87029869 37.98263276 88.49131638 41 90 C44.82973233 90.3612955 47.28253883 90.35873059 50.75 88.625 C55.60062234 82.96594061 56.33183008 75.21623518 57 68 C61.38074398 71.36022976 61.69000098 76.86175399 62.9375 81.9453125 C63.288125 82.95335937 63.63875 83.96140625 64 85 C64.99 85.33 65.98 85.66 67 86 C67.99 85.34 68.98 84.68 70 84 C69.9278125 83.39414063 69.855625 82.78828125 69.78125 82.1640625 C67.66087211 63.02176213 67.66087211 63.02176213 73 56 C74.93509461 54.329211 76.73641333 53.23468364 79 52 C78.835 52.969375 78.67 53.93875 78.5 54.9375 C77.69173689 60.8969325 77.10042516 65.94896937 79.5625 71.5625 C81.86347534 74.31872671 81.86347534 74.31872671 85.5625 74.6875 C89.13380799 74.36680741 89.13380799 74.36680741 90.8125 71.625 C91.204375 70.75875 91.59625 69.8925 92 69 C92.66 68.34 93.32 67.68 94 67 C97.37497764 71.49997019 97.35029439 74.5704369 97 80 C96.67 80.99 96.34 81.98 96 83 C95.93334624 84.39439664 95.91461801 85.79169875 95.9375 87.1875 C95.9684375 89.0746875 95.9684375 89.0746875 96 91 C97.65 91.33 99.3 91.66 101 92 C103.12508244 88.81237635 103.5020163 86.73487777 104 83 C104.66 83 105.32 83 106 83 C107.17245774 86.51737321 107.13266285 89.3575132 107.125 93.0625 C107.12757813 94.31160156 107.13015625 95.56070313 107.1328125 96.84765625 C107 100 107 100 106 102 C107.86132568 101.96072388 107.86132568 101.96072388 109.76025391 101.9206543 C114.37823348 101.82993418 118.99613479 101.77267139 123.61474609 101.7253418 C125.61097473 101.70024728 127.60711193 101.66616374 129.60302734 101.62280273 C132.47776888 101.56192754 135.35129248 101.53373976 138.2265625 101.51171875 C139.11429352 101.48591232 140.00202454 101.4601059 140.91665649 101.43351746 C145.23324164 101.43157773 148.09347263 101.61167548 151.52099609 104.38598633 C154.50561935 107.53315604 155.91972896 109.53668249 156.0625 113.91796875 C155.82309373 117.90557936 155.25362741 119.68467944 152.6875 122.875 C148.23133404 126.39848006 145.59620212 127.23476884 139.87890625 127.09765625 C138.69619141 127.09572266 137.51347656 127.09378906 136.29492188 127.09179688 C133.81018124 127.07229342 131.32550249 127.02548748 128.84179688 126.95117188 C125.35351234 126.97205981 122.36644631 127.07562458 119 128 C116.40535416 130.67939129 115.27501584 133.53740886 114 137 C97.49834889 162.05507418 69.07810259 176.74939529 40.4140625 183.0703125 C36.62461611 183.83182804 32.82883809 184.4659346 29 185 C28.34483398 185.0928125 27.68966797 185.185625 27.01464844 185.28125 C-9.20689323 189.91020101 -49.35692911 183.261923 -78.7890625 160.59375 C-99.94028872 143.70347861 -99.94028872 143.70347861 -103.66430664 133.11035156 C-104.53442909 130.86711609 -105.18675883 129.60322829 -107 128 C-111.47051835 127.02900626 -115.8800045 127.15937476 -120.4375 127.25 C-122.8736377 127.26790337 -125.30990326 127.27358207 -127.74609375 127.265625 C-128.82560303 127.28399414 -129.9051123 127.30236328 -131.01733398 127.32128906 C-135.47013474 126.84163892 -138.03359616 124.86192775 -141.3125 121.9375 C-143.77299372 117.65441835 -143.91713833 113.82461005 -143 109 C-141.30375149 105.88290864 -139.22141825 103.61070912 -136 102 C-134.58026727 101.91065594 -133.15642209 101.88241022 -131.73388672 101.88647461 C-130.41274368 101.88658791 -130.41274368 101.88658791 -129.06491089 101.88670349 C-128.11278717 101.89186478 -127.16066345 101.89702606 -126.1796875 101.90234375 C-124.71899338 101.90446617 -124.71899338 101.90446617 -123.22879028 101.90663147 C-120.11082927 101.91224027 -116.9929394 101.92479427 -113.875 101.9375 C-111.76432395 101.94251387 -109.65364678 101.94707697 -107.54296875 101.95117188 C-102.36195479 101.96221255 -97.18098248 101.97895927 -92 102 C-92.48750732 101.06736328 -92.97501465 100.13472656 -93.47729492 99.17382812 C-96.23206175 93.43197006 -95.63869672 87.35519414 -94 81.3125 C-93.67 80.549375 -93.34 79.78625 -93 79 C-91.11608215 82.26545761 -90.50712033 85.28111761 -90 89 C-87.36 89 -84.72 89 -82 89 C-82.14204741 87.41632253 -82.28880153 85.83306682 -82.4375 84.25 C-82.51871094 83.36828125 -82.59992188 82.4865625 -82.68359375 81.578125 C-82.96300201 79.30146509 -83.43438327 77.21648182 -84 75 C-84.39058391 69.7271172 -83.6719551 66.56458996 -81 62 C-80.34 62 -79.68 62 -79 62 C-78.690625 63.134375 -78.38125 64.26875 -78.0625 65.4375 C-77.37075469 68.78775099 -77.37075469 68.78775099 -76 70 C-71.93351976 70.50375834 -71.93351976 70.50375834 -68 70 C-65.17453983 67.33205678 -64.09695758 65.71873139 -63.57421875 61.84375 C-63.63029297 60.18859375 -63.63029297 60.18859375 -63.6875 58.5 C-63.71199219 57.3965625 -63.73648438 56.293125 -63.76171875 55.15625 C-63.97346198 52.35151994 -64.3717764 49.7376248 -65 47 C-60.55955487 48.35680268 -58.54835485 50.13353058 -56 54 C-53.02743822 60.53963592 -53.55449323 67.13384286 -55 74 C-55.03824623 76.33301986 -55.04574284 78.66711508 -55 81 C-53.35 81.66 -51.7 82.32 -50 83 C-49.93683594 82.22398437 -49.87367188 81.44796875 -49.80859375 80.6484375 C-48.73819645 71.20640658 -45.57377228 64.1569682 -41 56 C-40.67 56 -40.34 56 -40 56 C-39.79503906 57.12019531 -39.59007812 58.24039063 -39.37890625 59.39453125 C-39.10688311 60.86720824 -38.83474151 62.33986336 -38.5625 63.8125 C-38.42779297 64.55048828 -38.29308594 65.28847656 -38.15429688 66.04882812 C-37.58580263 69.11315076 -36.98690349 72.03928953 -36 75 C-32.50529418 76.47852938 -28.72425897 76.26135151 -25 76 C-21.27196535 74.25271222 -21.27196535 74.25271222 -19 71 C-18.33396263 63.82728982 -19.22716921 56.97364994 -20.5 49.9375 C-22.94712315 36.29057291 -22.86507216 24.95580389 -15.8515625 12.65625 C-12.73740044 8.18867574 -5.87665461 0 0 0 Z M-1 62 C-0.71125 62.98097656 -0.4225 63.96195313 -0.125 64.97265625 C3.40507136 77.5517757 5.24053198 89.55373656 0 102 C5.28 102 10.56 102 16 102 C14.77054735 88.14071558 12.96136544 75.57280476 3 65 C1.68922537 63.97060812 0.36055814 62.96263146 -1 62 Z M-67 79 C-70.91993352 84.67714509 -72.10415328 90.24585605 -73.38671875 96.98828125 C-74 100 -74 100 -75 102 C-67.74 102 -60.48 102 -53 102 C-52.67 100.02 -52.34 98.04 -52 96 C-52.33 96.66 -52.66 97.32 -53 98 C-56.33831419 98.75584472 -58.97352351 99.27742608 -62.3125 98.375 C-64.63178419 96.48521288 -65.09445221 94.84992746 -66 92 C-66.1953125 88.66796875 -66.1953125 88.66796875 -66.125 85.1875 C-66.10695313 84.02605469 -66.08890625 82.86460937 -66.0703125 81.66796875 C-66.04710937 80.78753906 -66.02390625 79.90710938 -66 79 C-66.33 79 -66.66 79 -67 79 Z M80 82 C80.03480469 82.88042969 80.06960938 83.76085937 80.10546875 84.66796875 C80.13253906 85.82941406 80.15960938 86.99085938 80.1875 88.1875 C80.22230469 89.33605469 80.25710938 90.48460937 80.29296875 91.66796875 C79.88827165 96.27072382 78.21682591 98.78317409 75 102 C78.96 102 82.92 102 87 102 C85.96770385 94.42982824 84.81679772 88.61578271 81 82 C80.67 82 80.34 82 80 82 Z M-29 97 C-28.67 98.65 -28.34 100.3 -28 102 C-27.34 101.67 -26.68 101.34 -26 101 C-26.99 99.68 -27.98 98.36 -29 97 Z M-83 98 C-82.67 99.32 -82.34 100.64 -82 102 C-81.01 101.67 -80.02 101.34 -79 101 C-80.32 100.01 -81.64 99.02 -83 98 Z M67 99 C67.33 99.99 67.66 100.98 68 102 C68.99 101.67 69.98 101.34 71 101 C69.68 100.34 68.36 99.68 67 99 Z M-135 113 C-134.74853421 115.13745922 -134.54074221 116.45925779 -133 118 C-131.29227642 118.08713831 -129.58101351 118.10700007 -127.87109375 118.09765625 C-126.83662109 118.09443359 -125.80214844 118.09121094 -124.73632812 118.08789062 C-123.64771484 118.07951172 -122.55910156 118.07113281 -121.4375 118.0625 C-120.34501953 118.05798828 -119.25253906 118.05347656 -118.12695312 118.04882812 C-115.41791505 118.03699826 -112.70898401 118.02051543 -110 118 C-110.66 115.36 -111.32 112.72 -112 110 C-115.27066566 109.91293108 -118.54103365 109.85958759 -121.8125 109.8125 C-123.2056543 109.77479492 -123.2056543 109.77479492 -124.62695312 109.73632812 C-125.51962891 109.72666016 -126.41230469 109.71699219 -127.33203125 109.70703125 C-128.56530151 109.68346558 -128.56530151 109.68346558 -129.82348633 109.65942383 C-132.50471159 110.07897618 -133.40342147 110.83865429 -135 113 Z M125 110 C123.74335022 112.90600261 123 114.79604584 123 118 C126.81248426 118.02887236 130.6249407 118.04675492 134.4375 118.0625 C135.52611328 118.07087891 136.61472656 118.07925781 137.73632812 118.08789062 C139.28803711 118.09272461 139.28803711 118.09272461 140.87109375 118.09765625 C141.82943115 118.10289307 142.78776855 118.10812988 143.77514648 118.11352539 C145.97285339 118.2505313 145.97285339 118.2505313 147 117 C147.2500773 114.54190002 147.2500773 114.54190002 147 112 C145.22398157 109.80697743 145.22398157 109.80697743 142.93701172 109.77294922 C142.10959473 109.78342285 141.28217773 109.79389648 140.4296875 109.8046875 C139.53378906 109.81113281 138.63789063 109.81757813 137.71484375 109.82421875 C136.30912109 109.84935547 136.30912109 109.84935547 134.875 109.875 C133.93011719 109.88402344 132.98523438 109.89304687 132.01171875 109.90234375 C129.67422708 109.92595478 127.33723877 109.95888484 125 110 Z " fill="#FE3030" transform="translate(250,171)"/>
<path d="M0 0 C-0.28875 1.0415625 -0.5775 2.083125 -0.875 3.15625 C-4.14946777 15.54183695 -6.98919742 28.90745907 -1.19921875 41.015625 C1.81935753 46.01053298 5.57843191 48.93980413 11 51 C16.90114333 51.76496302 21.18154067 50.30315198 26 47 C29.67018191 42.84046051 30.12115417 37.32477182 31 32 C31.66 32 32.32 32 33 32 C38.62058701 38.77352794 40.44761589 46.30220885 40 55 C39.13587198 59.20160433 37.93947585 63.31426686 36.77734375 67.44140625 C35.30608719 72.93129502 34.18974988 78.3019708 35 84 C36.79393668 86.87029869 37.98263276 88.49131638 41 90 C44.82973233 90.3612955 47.28253883 90.35873059 50.75 88.625 C55.60062234 82.96594061 56.33183008 75.21623518 57 68 C61.38074398 71.36022976 61.69000098 76.86175399 62.9375 81.9453125 C63.288125 82.95335937 63.63875 83.96140625 64 85 C64.99 85.33 65.98 85.66 67 86 C67.99 85.34 68.98 84.68 70 84 C69.9278125 83.39414063 69.855625 82.78828125 69.78125 82.1640625 C67.66087211 63.02176213 67.66087211 63.02176213 73 56 C74.93509461 54.329211 76.73641333 53.23468364 79 52 C78.835 52.969375 78.67 53.93875 78.5 54.9375 C77.69173689 60.8969325 77.10042516 65.94896937 79.5625 71.5625 C81.86347534 74.31872671 81.86347534 74.31872671 85.5625 74.6875 C89.13380799 74.36680741 89.13380799 74.36680741 90.8125 71.625 C91.204375 70.75875 91.59625 69.8925 92 69 C92.66 68.34 93.32 67.68 94 67 C97.37497764 71.49997019 97.35029439 74.5704369 97 80 C96.67 80.99 96.34 81.98 96 83 C95.93334624 84.39439664 95.91461801 85.79169875 95.9375 87.1875 C95.9684375 89.0746875 95.9684375 89.0746875 96 91 C97.65 91.33 99.3 91.66 101 92 C103.12508244 88.81237635 103.5020163 86.73487777 104 83 C104.66 83 105.32 83 106 83 C107.17245774 86.51737321 107.13266285 89.3575132 107.125 93.0625 C107.12757813 94.31160156 107.13015625 95.56070313 107.1328125 96.84765625 C107 100 107 100 106 102 C102.85418577 102.02888514 99.70840531 102.04675923 96.5625 102.0625 C95.66466797 102.07087891 94.76683594 102.07925781 93.84179688 102.08789062 C92.56079102 102.09272461 92.56079102 102.09272461 91.25390625 102.09765625 C90.46314697 102.10289307 89.6723877 102.10812988 88.85766602 102.11352539 C87 102 87 102 86 101 C85.20602706 97.4520752 84.51601633 93.88795763 83.81640625 90.3203125 C83.17262285 86.89061499 83.17262285 86.89061499 81 84 C81.03480469 84.73605469 81.06960938 85.47210938 81.10546875 86.23046875 C81.37980085 96.11948791 81.37980085 96.11948791 78 100 C74.29658604 102.46894264 73.19547676 101.82085415 69 101 C68.67 101.33 68.34 101.66 68 102 C66.37325222 102.09340434 64.74245949 102.11745171 63.11303711 102.11352539 C62.07203354 102.11344986 61.03102997 102.11337433 59.95848083 102.11329651 C58.8262056 102.10813522 57.69393036 102.10297394 56.52734375 102.09765625 C55.37456436 102.0962413 54.22178497 102.09482635 53.03407288 102.09336853 C49.33518936 102.08775005 45.63636536 102.07519442 41.9375 102.0625 C39.43684983 102.05748738 36.93619871 102.05292406 34.43554688 102.04882812 C28.29034412 102.03777462 22.14517631 102.02101852 16 102 C15.89682968 101.43603516 15.79365936 100.87207031 15.68736267 100.29101562 C15.20620438 97.69211232 14.710624 95.09615198 14.21484375 92.5 C14.05286499 91.613125 13.89088623 90.72625 13.72399902 89.8125 C11.80056817 79.85914555 8.55056752 70.10126259 0 64 C0.28875 64.83660156 0.5775 65.67320312 0.875 66.53515625 C4.51383754 77.94442813 6.59372758 89.81254485 1 101 C-0.76988265 102.76988265 -3.31965418 102.13029068 -5.71484375 102.1328125 C-6.87564453 102.13410156 -8.03644531 102.13539063 -9.23242188 102.13671875 C-10.45509766 102.13285156 -11.67777344 102.12898438 -12.9375 102.125 C-14.15630859 102.12886719 -15.37511719 102.13273437 -16.63085938 102.13671875 C-17.79294922 102.13542969 -18.95503906 102.13414062 -20.15234375 102.1328125 C-21.22476318 102.13168457 -22.29718262 102.13055664 -23.40209961 102.12939453 C-26 102 -26 102 -28 101 C-28 101.33 -28 101.66 -28 102 C-36.25 102 -44.5 102 -53 102 C-53 100.68 -53 99.36 -53 98 C-54.051875 98.391875 -55.10375 98.78375 -56.1875 99.1875 C-60 100 -60 100 -62.8125 98.9375 C-66.11496351 96.01246089 -66.92120773 93.25594877 -67.1953125 88.88671875 C-67.17210937 87.83097656 -67.14890625 86.77523437 -67.125 85.6875 C-67.10695312 84.61886719 -67.08890625 83.55023438 -67.0703125 82.44921875 C-67.04710937 81.64097656 -67.02390625 80.83273438 -67 80 C-69.41589368 84.38763977 -70.6475614 88.33547268 -71.5625 93.25 C-72.78210117 99.78210117 -72.78210117 99.78210117 -75 102 C-77.61580479 101.6730244 -79.64078137 101.17960932 -82 100 C-82 100.66 -82 101.32 -82 102 C-85.3 102 -88.6 102 -92 102 C-95.58452612 96.47385557 -95.57517738 91.36466768 -95 85 C-94 81.3125 -94 81.3125 -93 79 C-91.11608215 82.26545761 -90.50712033 85.28111761 -90 89 C-87.36 89 -84.72 89 -82 89 C-82.14204741 87.41632253 -82.28880153 85.83306682 -82.4375 84.25 C-82.51871094 83.36828125 -82.59992188 82.4865625 -82.68359375 81.578125 C-82.96300201 79.30146509 -83.43438327 77.21648182 -84 75 C-84.39058391 69.7271172 -83.6719551 66.56458996 -81 62 C-80.34 62 -79.68 62 -79 62 C-78.5359375 63.7015625 -78.5359375 63.7015625 -78.0625 65.4375 C-77.37075469 68.78775099 -77.37075469 68.78775099 -76 70 C-71.93351976 70.50375834 -71.93351976 70.50375834 -68 70 C-65.17453983 67.33205678 -64.09695758 65.71873139 -63.57421875 61.84375 C-63.61160156 60.7403125 -63.64898437 59.636875 -63.6875 58.5 C-63.71199219 57.3965625 -63.73648438 56.293125 -63.76171875 55.15625 C-63.97346198 52.35151994 -64.3717764 49.7376248 -65 47 C-60.55955487 48.35680268 -58.54835485 50.13353058 -56 54 C-53.02743822 60.53963592 -53.55449323 67.13384286 -55 74 C-55.03824623 76.33301986 -55.04574284 78.66711508 -55 81 C-53.35 81.66 -51.7 82.32 -50 83 C-49.90525391 81.83597656 -49.90525391 81.83597656 -49.80859375 80.6484375 C-48.73819645 71.20640658 -45.57377228 64.1569682 -41 56 C-40.67 56 -40.34 56 -40 56 C-39.79503906 57.12019531 -39.59007812 58.24039063 -39.37890625 59.39453125 C-39.10688311 60.86720824 -38.83474151 62.33986336 -38.5625 63.8125 C-38.42779297 64.55048828 -38.29308594 65.28847656 -38.15429688 66.04882812 C-37.58580263 69.11315076 -36.98690349 72.03928953 -36 75 C-32.50529418 76.47852938 -28.72425897 76.26135151 -25 76 C-21.27196535 74.25271222 -21.27196535 74.25271222 -19 71 C-18.33396263 63.82728982 -19.22716921 56.97364994 -20.5 49.9375 C-22.94712315 36.29057291 -22.86507216 24.95580389 -15.8515625 12.65625 C-12.73740044 8.18867574 -5.87665461 0 0 0 Z " fill="#CA101E" transform="translate(250,171)"/>
<path d="M0 0 C1.07636719 0.00322266 2.15273437 0.00644531 3.26171875 0.00976562 C4.38964844 0.01814453 5.51757812 0.02652344 6.6796875 0.03515625 C7.81535156 0.03966797 8.95101562 0.04417969 10.12109375 0.04882812 C12.93234388 0.0606401 15.7434898 0.07711118 18.5546875 0.09765625 C18.5546875 2.73765625 18.5546875 5.37765625 18.5546875 8.09765625 C11.2946875 8.42765625 4.0346875 8.75765625 -3.4453125 9.09765625 C-3.4453125 10.74765625 -3.4453125 12.39765625 -3.4453125 14.09765625 C-1.76230581 15.78066294 0.37477477 15.32574702 2.68359375 15.4140625 C4.23530273 15.4769043 4.23530273 15.4769043 5.81835938 15.54101562 C6.90697266 15.58033203 7.99558594 15.61964844 9.1171875 15.66015625 C10.20966797 15.70333984 11.30214844 15.74652344 12.42773438 15.79101562 C15.13658314 15.89747693 17.84552742 15.99949141 20.5546875 16.09765625 C23.5546875 21.72265625 23.5546875 21.72265625 23.5546875 25.09765625 C19.15897956 25.18488155 14.76349479 25.23812494 10.3671875 25.28515625 C8.49836914 25.32286133 8.49836914 25.32286133 6.59179688 25.36132812 C5.38974609 25.37099609 4.18769531 25.38066406 2.94921875 25.390625 C1.29176636 25.41419067 1.29176636 25.41419067 -0.39916992 25.43823242 C-4.88788261 24.93636866 -7.44933654 22.98595914 -10.7578125 20.03515625 C-13.21830622 15.7520746 -13.36245083 11.9222663 -12.4453125 7.09765625 C-9.40608344 1.51265229 -6.1175945 -0.03219787 0 0 Z " fill="#CA101E" transform="translate(119.4453125,272.90234375)"/>
<path d="M0 0 C3.70791544 -0.14592789 7.41508726 -0.23427895 11.125 -0.3125 C12.69507813 -0.3753418 12.69507813 -0.3753418 14.296875 -0.43945312 C23.02748818 -0.57759574 23.02748818 -0.57759574 26.65234375 2.375 C29.49709559 5.55582069 30.92183735 7.60138383 31.0625 11.91796875 C30.82309373 15.90557936 30.25362741 17.68467944 27.6875 20.875 C23.19941467 24.42371863 20.4659755 25.24967901 14.703125 25.1953125 C12.89521484 25.18564453 12.89521484 25.18564453 11.05078125 25.17578125 C9.16939453 25.15064453 9.16939453 25.15064453 7.25 25.125 C5.98027344 25.11597656 4.71054687 25.10695313 3.40234375 25.09765625 C0.26803907 25.07409005 -2.86588541 25.04118832 -6 25 C-5.01 22.03 -4.02 19.06 -3 16 C4.92 15.67 12.84 15.34 21 15 C21 13.35 21 11.7 21 10 C19.38219843 8.38219843 17.54364482 8.77727853 15.30859375 8.68359375 C14.36435547 8.64169922 13.42011719 8.59980469 12.44726562 8.55664062 C11.45404297 8.51732422 10.46082031 8.47800781 9.4375 8.4375 C8.44041016 8.39431641 7.44332031 8.35113281 6.41601562 8.30664062 C3.9441585 8.20019702 1.4721969 8.09818072 -1 8 C-0.67 5.36 -0.34 2.72 0 0 Z " fill="#CA101E" transform="translate(375,273)"/>
<path d="M0 0 C4.13316732 2.06658366 6.28257207 3.74917159 8 8 C8.58560454 12.25133689 8.46696273 15.92598573 6.75 19.875 C3.65473531 23.63353569 1.45316196 25.11351137 -3.375 25.875 C-8.55845972 26.30127136 -11.81920117 24.80479904 -15.8125 21.5 C-18.45971645 18.15614765 -18.33152201 14.35600197 -18.28515625 10.2890625 C-17.84223476 6.73355576 -16.32825076 4.65161892 -14 2 C-9.56645907 -0.74502215 -5.06212299 -0.65472253 0 0 Z " fill="#CA101E" transform="translate(387,315)"/>
<path d="M0 0 C4.13316732 2.06658366 6.28257207 3.74917159 8 8 C8.58560454 12.25133689 8.46696273 15.92598573 6.75 19.875 C3.65473531 23.63353569 1.45316196 25.11351137 -3.375 25.875 C-8.55845972 26.30127136 -11.81920117 24.80479904 -15.8125 21.5 C-18.45971645 18.15614765 -18.33152201 14.35600197 -18.28515625 10.2890625 C-17.84223476 6.73355576 -16.32825076 4.65161892 -14 2 C-9.56645907 -0.74502215 -5.06212299 -0.65472253 0 0 Z " fill="#CA101E" transform="translate(144,315)"/>
<path d="M0 0 C4.18769976 1.29963096 5.82131607 2.83920414 8.65625 6.04296875 C10.14252711 9.23726592 9.7453456 10.78831852 8.625 14.125 C6.61204989 16.77664612 4.28684411 19.02515391 1.875 21.3125 C1.25367188 21.92802734 0.63234375 22.54355469 -0.0078125 23.17773438 C-3.24953787 26.33397121 -6.33448778 29.00450218 -10.375 31.125 C-11.695 29.805 -13.015 28.485 -14.375 27.125 C-13.08200306 24.24062221 -11.71558637 22.25280579 -9.375 20.125 C-9.705 19.465 -10.035 18.805 -10.375 18.125 C-12.355 19.775 -14.335 21.425 -16.375 23.125 C-18.3125 22.375 -18.3125 22.375 -20.375 21.125 C-21.18041992 19.25610352 -21.18041992 19.25610352 -21.375 17.125 C-20.2668457 15.43334961 -20.2668457 15.43334961 -18.55078125 13.77734375 C-17.93396484 13.17212891 -17.31714844 12.56691406 -16.68164062 11.94335938 C-16.02357422 11.32267578 -15.36550781 10.70199219 -14.6875 10.0625 C-14.04876953 9.43794922 -13.41003906 8.81339844 -12.75195312 8.16992188 C-4.49215732 0.1663762 -4.49215732 0.1663762 0 0 Z M-3 9.625 C-3.78375 10.45 -4.5675 11.275 -5.375 12.125 C-5.045 13.115 -4.715 14.105 -4.375 15.125 C-2.065 13.145 0.245 11.165 2.625 9.125 C2.295 8.465 1.965 7.805 1.625 7.125 C-0.73778736 6.89511494 -0.73778736 6.89511494 -3 9.625 Z " fill="#CB0F1D" transform="translate(358.375,160.875)"/>
<path d="M0 0 C5.06583821 0.61972656 8.14885398 3.2317476 12.16796875 6.23828125 C13.30588867 7.0590918 13.30588867 7.0590918 14.46679688 7.89648438 C17.69046147 10.24381296 20.7161975 12.54069675 23.48046875 15.42578125 C22.49046875 17.07578125 21.50046875 18.72578125 20.48046875 20.42578125 C17.51871752 19.81300513 16.09988092 19.17205603 13.48046875 17.42578125 C12.49046875 17.75578125 11.50046875 18.08578125 10.48046875 18.42578125 C12.46046875 19.74578125 14.44046875 21.06578125 16.48046875 22.42578125 C16.23046875 24.80078125 16.23046875 24.80078125 15.48046875 27.42578125 C13.43359375 28.58984375 13.43359375 28.58984375 11.48046875 29.42578125 C9.08363023 27.67714434 6.68797687 25.92692207 4.29296875 24.17578125 C3.61943359 23.68464844 2.94589844 23.19351563 2.25195312 22.6875 C-8.19267384 15.04509002 -8.19267384 15.04509002 -9.70703125 12.17578125 C-9.37486501 7.30400972 -4.99416266 0.84397477 0 0 Z M-1.51953125 7.42578125 C-1.84953125 8.41578125 -2.17953125 9.40578125 -2.51953125 10.42578125 C0.29758521 12.55400009 0.29758521 12.55400009 3.48046875 14.42578125 C4.47046875 14.09578125 5.46046875 13.76578125 6.48046875 13.42578125 C6.48046875 12.76578125 6.48046875 12.10578125 6.48046875 11.42578125 C2.84723186 8.4634243 2.84723186 8.4634243 -1.51953125 7.42578125 Z " fill="#CA0F1D" transform="translate(138.51953125,177.57421875)"/>
<path d="M0 0 C1.76150391 -0.02126953 1.76150391 -0.02126953 3.55859375 -0.04296875 C6.5625 0.1875 6.5625 0.1875 8.5625 2.1875 C8.78955078 4.98486328 8.78955078 4.98486328 8.7578125 8.5078125 C8.75136719 9.76464844 8.74492187 11.02148438 8.73828125 12.31640625 C8.72152344 13.63511719 8.70476562 14.95382813 8.6875 16.3125 C8.67746983 17.65233721 8.66834404 18.99218152 8.66015625 20.33203125 C8.63652075 23.61736573 8.60357234 26.90234465 8.5625 30.1875 C6.2525 30.1875 3.9425 30.1875 1.5625 30.1875 C1.5625 26.8875 1.5625 23.5875 1.5625 20.1875 C0.2425 20.1875 -1.0775 20.1875 -2.4375 20.1875 C-2.4375 23.4875 -2.4375 26.7875 -2.4375 30.1875 C-4.7475 30.1875 -7.0575 30.1875 -9.4375 30.1875 C-9.49571935 26.29172976 -9.5311703 22.39607198 -9.5625 18.5 C-9.57925781 17.39720703 -9.59601563 16.29441406 -9.61328125 15.15820312 C-9.61972656 14.09150391 -9.62617188 13.02480469 -9.6328125 11.92578125 C-9.64328613 10.94649658 -9.65375977 9.96721191 -9.66455078 8.95825195 C-9.04524144 1.40068019 -7.15506754 0.03918438 0 0 Z M-1.4375 5.1875 C-1.4375 8.1575 -1.4375 11.1275 -1.4375 14.1875 C-0.4475 14.1875 0.5425 14.1875 1.5625 14.1875 C1.5625 11.2175 1.5625 8.2475 1.5625 5.1875 C0.5725 5.1875 -0.4175 5.1875 -1.4375 5.1875 Z " fill="#CA101E" transform="translate(257.4375,118.8125)"/>
<path d="M0 0 C3.42320594 0.32092556 6.55620281 1.46694056 9.75 2.6875 C10.91789062 3.12642578 10.91789062 3.12642578 12.109375 3.57421875 C14 5 14 5 14.96875 7.5703125 C15.01173983 12.28844628 13.53590361 15.86981539 11.75 20.1875 C11.43675781 20.99380859 11.12351562 21.80011719 10.80078125 22.63085938 C7.99192907 29.64133483 7.99192907 29.64133483 5 32 C-0.92689854 31.88146203 -5.76977415 29.54988335 -11 27 C-1.51383399 1.51383399 -1.51383399 1.51383399 0 0 Z M5 7 C1.85180745 12.86215164 -0.26375242 18.5811453 -2 25 C-1.01 25.33 -0.02 25.66 1 26 C3.31 20.39 5.62 14.78 8 9 C7.01 8.34 6.02 7.68 5 7 Z " fill="#CA0F1D" transform="translate(303,127)"/>
<path d="M0 0 C4.65108366 2.08741445 7.55494976 5.32527975 11 9 C11.639375 9.680625 12.27875 10.36125 12.9375 11.0625 C19.21621025 17.96908127 19.21621025 17.96908127 20 22 C18.93828671 26.24685317 15.4431881 28.56951428 12 31 C9.4375 31.625 9.4375 31.625 7 31 C5.28005088 29.36755706 3.63886343 27.71059634 2 26 C0.89174459 24.88690651 -0.21905275 23.77633963 -1.33203125 22.66796875 C-4.5546875 19.4453125 -7.77734375 16.22265625 -11 13 C-9.63016497 9.83884224 -9.0109362 9.0072908 -6 7 C-0.72 12.28 4.56 17.56 10 23 C10.31007227 20.0468522 10.31007227 20.0468522 8.71484375 18.37426758 C8.12832031 17.80345459 7.54179687 17.2326416 6.9375 16.64453125 C6.30585938 16.02255859 5.67421875 15.40058594 5.0234375 14.75976562 C4.35570312 14.11716797 3.68796875 13.47457031 3 12.8125 C2.33226562 12.15830078 1.66453125 11.50410156 0.9765625 10.83007812 C-0.67578441 9.21313865 -2.33471601 7.60359509 -4 6 C-2.84826645 3.53199953 -1.95216435 1.95216435 0 0 Z " fill="#CB0F1D" transform="translate(156,156)"/>
<path d="M0 0 C1.8984375 1.57421875 1.8984375 1.57421875 3.375 3.6875 C4.12910156 4.71423828 4.12910156 4.71423828 4.8984375 5.76171875 C6.20373149 8.41396504 6.35557767 10.07849697 6 13 C4 15.3125 4 15.3125 2 17 C-1.75283733 15.54728878 -1.75283733 15.54728878 -2.875 13.0625 C-3 11 -3 11 -1 8 C-4.54518884 9.39759905 -4.54518884 9.39759905 -8 11 C-7.62746094 11.47050781 -7.25492187 11.94101563 -6.87109375 12.42578125 C-6.39800781 13.04839844 -5.92492187 13.67101562 -5.4375 14.3125 C-4.96183594 14.92738281 -4.48617188 15.54226562 -3.99609375 16.17578125 C-3.66738281 16.77777344 -3.33867187 17.37976563 -3 18 C-4.50980676 22.52942029 -7.91928982 23.83188074 -12 26 C-14.6875 27.125 -14.6875 27.125 -17 27 C-21.36902336 23.6712203 -23.41286733 20.134841 -25 15 C-23.27094312 9.9763563 -19.02011092 7.98430632 -14.75 5.25 C-13.99847656 4.74339844 -13.24695313 4.23679688 -12.47265625 3.71484375 C-5.08759975 -1.06675479 -5.08759975 -1.06675479 0 0 Z M-16.125 16 C-16.74375 16.66 -17.3625 17.32 -18 18 C-17.34 18.66 -16.68 19.32 -16 20 C-14.35 18.68 -12.7 17.36 -11 16 C-11.33 15.34 -11.66 14.68 -12 14 C-14.24362573 13.7715451 -14.24362573 13.7715451 -16.125 16 Z " fill="#CB0F1D" transform="translate(378,182)"/>
<path d="M0 0 C1.43859375 0.18175781 1.43859375 0.18175781 2.90625 0.3671875 C4.34484375 0.52574219 4.34484375 0.52574219 5.8125 0.6875 C8.40625 1.2421875 8.40625 1.2421875 11.40625 3.2421875 C12.49741023 13.06262958 9.59513045 22.72446628 7.40625 32.2421875 C5.09625 31.5821875 2.78625 30.9221875 0.40625 30.2421875 C1.12003027 22.10509245 2.73398882 14.22486822 4.40625 6.2421875 C3.41625 6.2421875 2.42625 6.2421875 1.40625 6.2421875 C1.36886719 6.80164063 1.33148438 7.36109375 1.29296875 7.9375 C0.67064943 15.52735521 -0.89499445 22.82749346 -2.59375 30.2421875 C-4.90375 29.9121875 -7.21375 29.5821875 -9.59375 29.2421875 C-9.18270361 23.21823184 -8.33906437 17.2985614 -7.21875 11.3671875 C-6.98414063 10.11164063 -6.74953125 8.85609375 -6.5078125 7.5625 C-4.54267088 0.42416505 -4.54267088 0.42416505 0 0 Z " fill="#CA0F1D" transform="translate(280.59375,120.7578125)"/>
<path d="M0 0 C-0.13921875 1.43279297 -0.13921875 1.43279297 -0.28125 2.89453125 C-0.79131293 12.03012261 0.01693155 16.68576893 6.34765625 23.828125 C6.89292969 24.54484375 7.43820313 25.2615625 8 26 C7.67 26.99 7.34 27.98 7 29 C5.02 29.33 3.04 29.66 1 30 C-0.98 27.03 -2.96 24.06 -5 21 C-4.34 24.3 -3.68 27.6 -3 31 C-5.31 31.66 -7.62 32.32 -10 33 C-12.4215316 26.92131656 -14.15825374 20.85722918 -15.6875 14.5 C-15.91244141 13.5821875 -16.13738281 12.664375 -16.36914062 11.71875 C-16.91712141 9.48019019 -17.46064345 7.24065035 -18 5 C-16.25 3.9375 -16.25 3.9375 -14 3 C-12.68 3.33 -11.36 3.66 -10 4 C-9.34 6.64 -8.68 9.28 -8 12 C-7.34 8.37 -6.68 4.74 -6 1 C-3 0 -3 0 0 0 Z " fill="#CA0F1D" transform="translate(226,122)"/>
<path d="M0 0 C2.375 2 2.375 2 4 4 C3 7 3 7 0.625 8.3125 C-0.24125 8.539375 -1.1075 8.76625 -2 9 C-2.99 8.34 -3.98 7.68 -5 7 C-5 10.51425835 -2.38722249 13.26299592 -0.5 16.125 C-0.07074219 16.78371094 0.35851562 17.44242188 0.80078125 18.12109375 C1.86313948 19.75004303 2.93105142 21.37536783 4 23 C5.33333333 20 5.33333333 20 4 17 C5.98 16.01 7.96 15.02 10 14 C12.13630675 16.31433231 12.96438371 17.81400379 13.5625 20.9375 C12.91118759 24.48353421 11.69620444 25.90919446 8.77734375 28.00390625 C5.63139368 29.76702112 3.60668619 30.25762044 0 30 C-2.60311333 27.67381362 -4.09386533 25.859202 -6 23 C-6.721875 21.948125 -7.44375 20.89625 -8.1875 19.8125 C-14.02743203 10.95600632 -14.02743203 10.95600632 -13.921875 7.27734375 C-11.66209134 1.69491209 -5.81872057 -1.16374411 0 0 Z " fill="#CB0F1D" transform="translate(180,142)"/>
<path d="M0 0 C4.60505192 1.01467246 8.27060099 2.49099665 11.6875 5.8125 C12.3944259 9.66131878 11.64235465 11.99308139 10.6875 15.8125 C13.3275 17.1325 15.9675 18.4525 18.6875 19.8125 C17.8125 24.5625 17.8125 24.5625 16.6875 26.8125 C10.76320956 25.07710179 5.3516012 22.36698391 -0.1875 19.6875 C-1.16203125 19.21957031 -2.1365625 18.75164062 -3.140625 18.26953125 C-5.53279499 17.12035155 -7.92334316 15.96792757 -10.3125 14.8125 C-6.09600576 1.4952467 -6.09600576 1.4952467 0 0 Z M-1.3125 7.8125 C-1.6425 8.8025 -1.9725 9.7925 -2.3125 10.8125 C-0.0025 11.4725 2.3075 12.1325 4.6875 12.8125 C5.0175 11.8225 5.3475 10.8325 5.6875 9.8125 C3.3775 9.1525 1.0675 8.4925 -1.3125 7.8125 Z " fill="#CA0F1D" transform="translate(126.3125,199.1875)"/>
<path d="M0 0 C0.66 1.98 1.32 3.96 2 6 C-0.475 7.485 -0.475 7.485 -3 9 C-2.67 10.32 -2.34 11.64 -2 13 C-1.401875 12.67 -0.80375 12.34 -0.1875 12 C2 11 2 11 5 11 C5.33 12.98 5.66 14.96 6 17 C4.68 17.99 3.36 18.98 2 20 C2.66 20.99 3.32 21.98 4 23 C5.98 22.34 7.96 21.68 10 21 C10.66 22.98 11.32 24.96 12 27 C10.42466914 27.86883706 8.83935491 28.71959068 7.25 29.5625 C6.36828125 30.03816406 5.4865625 30.51382813 4.578125 31.00390625 C2 32 2 32 0.01367188 31.89208984 C-2.98699605 30.56274447 -3.4795943 28.67978254 -4.796875 25.72265625 C-5.28027344 24.65208984 -5.76367188 23.58152344 -6.26171875 22.47851562 C-6.75285156 21.35123047 -7.24398437 20.22394531 -7.75 19.0625 C-8.25660156 17.93908203 -8.76320312 16.81566406 -9.28515625 15.65820312 C-13 7.33234712 -13 7.33234712 -13 5 C-11.21046815 4.16209211 -9.41830305 3.32980604 -7.625 2.5 C-6.62726563 2.0359375 -5.62953125 1.571875 -4.6015625 1.09375 C-2 0 -2 0 0 0 Z " fill="#CA0F1D" transform="translate(200,130)"/>
<path d="M0 0 C1.16796875 1.9609375 1.16796875 1.9609375 2.1875 4.375 C2.53167969 5.16648438 2.87585938 5.95796875 3.23046875 6.7734375 C4 9 4 9 4 12 C2.35 12.66 0.7 13.32 -1 14 C-2.32 12.35 -3.64 10.7 -5 9 C-5.99 9.66 -6.98 10.32 -8 11 C-7.67 12.65 -7.34 14.3 -7 16 C-8.65 16.66 -10.3 17.32 -12 18 C-12.66 16.68 -13.32 15.36 -14 14 C-15.65 14 -17.3 14 -19 14 C-18.34 16.31 -17.68 18.62 -17 21 C-20 23 -20 23 -23 23 C-23.83790789 21.21046815 -24.67019396 19.41830305 -25.5 17.625 C-26.19609375 16.12839844 -26.19609375 16.12839844 -26.90625 14.6015625 C-28 12 -28 12 -28 10 C-23.90281468 8.13011673 -19.79624404 6.28182961 -15.6875 4.4375 C-14.52025391 3.90447266 -13.35300781 3.37144531 -12.15039062 2.82226562 C-11.03212891 2.32275391 -9.91386719 1.82324219 -8.76171875 1.30859375 C-7.73006592 0.84251709 -6.69841309 0.37644043 -5.63549805 -0.10375977 C-3 -1 -3 -1 0 0 Z " fill="#CB0F1D" transform="translate(391,203)"/>
<path d="M0 0 C1.98 1.32 3.96 2.64 6 4 C1.96423199 10.25322296 -2.35437938 16.186102 -7 22 C-5.68 23.32 -4.36 24.64 -3 26 C-3.99 28.475 -3.99 28.475 -5 31 C-8.63195496 31 -9.74713911 30.04546845 -12.6875 28 C-13.49574219 27.443125 -14.30398438 26.88625 -15.13671875 26.3125 C-16.05904297 25.6628125 -16.05904297 25.6628125 -17 25 C-16.37797706 21.51330659 -15.01598178 19.34692073 -12.91015625 16.5234375 C-12.29076172 15.688125 -11.67136719 14.8528125 -11.03320312 13.9921875 C-10.38287109 13.12851563 -9.73253906 12.26484375 -9.0625 11.375 C-8.41603516 10.50359375 -7.76957031 9.6321875 -7.10351562 8.734375 C-2.32990597 2.32990597 -2.32990597 2.32990597 0 0 Z " fill="#CB0F1D" transform="translate(340,145)"/>
<path d="M0 0 C3.80909895 0.32417863 5.78372163 0.85581442 9 3 C8.49228528 8.96564796 6.61407872 13.63809899 4 19 C1.25 19.25 1.25 19.25 -2 19 C-4.203125 16.984375 -4.203125 16.984375 -6 15 C-5.3827904 12.8727242 -4.75598201 10.74823143 -4.125 8.625 C-3.77695313 7.44164062 -3.42890625 6.25828125 -3.0703125 5.0390625 C-2 2 -2 2 0 0 Z M2 5 C1.01 8.3 0.02 11.6 -1 15 C-0.34 15 0.32 15 1 15 C1.99 11.7 2.98 8.4 4 5 C3.34 5 2.68 5 2 5 Z " fill="#CC0E1C" transform="translate(195,354)"/>
<path d="M0 0 C3.05726845 0.26584943 5.33706432 0.57229956 7.9375 2.25 C9 4 9 4 8.7265625 6.27734375 C7.94546534 9.20435837 6.83379708 11.6273133 5.4375 14.3125 C4.98246094 15.19550781 4.52742187 16.07851563 4.05859375 16.98828125 C3.70925781 17.65214844 3.35992187 18.31601562 3 19 C-3.75 18.125 -3.75 18.125 -6 17 C-6.81689674 10.79158475 -3.99942645 6.22195228 -1 1 C-0.67 0.67 -0.34 0.34 0 0 Z M2 5 C0.68 8.3 -0.64 11.6 -2 15 C-1.34 15 -0.68 15 0 15 C1.32 11.7 2.64 8.4 4 5 C3.34 5 2.68 5 2 5 Z " fill="#CB0F1C" transform="translate(182,349)"/>
<path d="M0 0 C1.48011371 0.30798326 2.95907325 0.621518 4.4375 0.9375 C5.26121094 1.11152344 6.08492187 1.28554688 6.93359375 1.46484375 C9 2 9 2 10 3 C9.94937036 8.89835333 8.57285492 13.74242691 6 19 C3.03 18.67 0.06 18.34 -3 18 C-4.32435978 14.02692066 -3.18129186 11.19025432 -2.0625 7.3125 C-1.76956055 6.2596582 -1.76956055 6.2596582 -1.47070312 5.18554688 C-0.98800864 3.45491056 -0.49499154 1.72715934 0 0 Z M4 5 C3.01 7.97 2.02 10.94 1 14 C1.99 14.495 1.99 14.495 3 15 C3.66 11.7 4.32 8.4 5 5 C4.67 5 4.34 5 4 5 Z " fill="#CB0F1D" transform="translate(207,358)"/>
<path d="M0 0 C1.91015625 0.23046875 1.91015625 0.23046875 3.91015625 2.23046875 C3.72880074 4.99760278 3.44581765 7.62244635 3.03515625 10.35546875 C2.93074219 11.10957031 2.82632813 11.86367188 2.71875 12.640625 C2.45911027 14.50531031 2.18590596 16.36809762 1.91015625 18.23046875 C0.26015625 18.23046875 -1.38984375 18.23046875 -3.08984375 18.23046875 C-2.75984375 16.25046875 -2.42984375 14.27046875 -2.08984375 12.23046875 C-2.74984375 12.23046875 -3.40984375 12.23046875 -4.08984375 12.23046875 C-4.08984375 14.21046875 -4.08984375 16.19046875 -4.08984375 18.23046875 C-5.73984375 17.90046875 -7.38984375 17.57046875 -9.08984375 17.23046875 C-8.78252388 14.58393744 -8.46925053 11.93835375 -8.15234375 9.29296875 C-8.06533203 8.53822266 -7.97832031 7.78347656 -7.88867188 7.00585938 C-7.0663851 0.2143797 -6.88349972 0.13742014 0 0 Z M-2.08984375 3.23046875 C-2.41984375 4.88046875 -2.74984375 6.53046875 -3.08984375 8.23046875 C-2.42984375 8.23046875 -1.76984375 8.23046875 -1.08984375 8.23046875 C-1.08984375 6.58046875 -1.08984375 4.93046875 -1.08984375 3.23046875 C-1.41984375 3.23046875 -1.74984375 3.23046875 -2.08984375 3.23046875 Z " fill="#CA0F1D" transform="translate(234.08984375,362.76953125)"/>
<path d="M0 0 C0.50744423 1.89385437 1.00564574 3.79018666 1.5 5.6875 C1.7784375 6.74324219 2.056875 7.79898437 2.34375 8.88671875 C2.9391715 11.71142672 3.12786492 14.12836708 3 17 C1.68 17.33 0.36 17.66 -1 18 C-1.33 15.69 -1.66 13.38 -2 11 C-2.33 11.33 -2.66 11.66 -3 12 C-2.71325582 14.00720923 -2.38133299 16.0085944 -2 18 C-3.65 18.33 -5.3 18.66 -7 19 C-7.50690584 16.93918639 -8.00524619 14.87626474 -8.5 12.8125 C-8.7784375 11.66394531 -9.056875 10.51539063 -9.34375 9.33203125 C-9.91495385 6.43181171 -10.13283779 3.93903615 -10 1 C-6.61376074 -0.04191977 -3.52573365 -0.03863818 0 0 Z M-5 4 C-5 4.99 -5 5.98 -5 7 C-4.34 7 -3.68 7 -3 7 C-3.33 6.01 -3.66 5.02 -4 4 C-4.33 4 -4.66 4 -5 4 Z " fill="#CA0F1D" transform="translate(299,361)"/>
<path d="M0 0 C2.45855991 5.26322777 4.56176509 10.36691325 6 16 C4.35 16.33 2.7 16.66 1 17 C0.01 14.69 -0.98 12.38 -2 10 C-1.34 12.64 -0.68 15.28 0 18 C-1.65 18.33 -3.3 18.66 -5 19 C-5.67610423 17.10751181 -6.34050439 15.2108398 -7 13.3125 C-7.37125 12.25675781 -7.7425 11.20101563 -8.125 10.11328125 C-8.9391857 7.21637944 -9.17709796 4.98299377 -9 2 C-5.86501708 0.14223235 -3.62528568 -0.20140476 0 0 Z " fill="#CA0F1D" transform="translate(319,355)"/>
<path d="M0 0 C1.86493649 3.71003323 2.22429072 6.69193528 2.125 10.8125 C2.10695313 11.78832031 2.08890625 12.76414062 2.0703125 13.76953125 C2.03550781 14.87361328 2.03550781 14.87361328 2 16 C-4.625 18 -4.625 18 -8 18 C-8.3396019 16.12612523 -8.67138691 14.25083303 -9 12.375 C-9.2784375 10.80878906 -9.2784375 10.80878906 -9.5625 9.2109375 C-9.98715797 6.09425135 -10.07545206 3.14069188 -10 0 C-2.90322581 -1.4516129 -2.90322581 -1.4516129 0 0 Z M-5 3 C-4.67 6.63 -4.34 10.26 -4 14 C-3.34 14 -2.68 14 -2 14 C-2.33 10.37 -2.66 6.74 -3 3 C-3.66 3 -4.32 3 -5 3 Z " fill="#CA101D" transform="translate(285,364)"/>
<path d="M0 0 C1.64574566 -0.02688151 3.29161413 -0.04634123 4.9375 -0.0625 C5.85402344 -0.07410156 6.77054687 -0.08570313 7.71484375 -0.09765625 C10 0 10 0 11 1 C11.07319621 3.69654854 11.09242537 6.36691458 11.0625 9.0625 C11.05798828 9.82111328 11.05347656 10.57972656 11.04882812 11.36132812 C11.0370068 13.24091871 11.01907078 15.12046899 11 17 C7.78548731 18.60725635 4.56387464 18.05748185 1 18 C0.04380267 14.00204108 -0.1039592 10.29196078 -0.0625 6.1875 C-0.05347656 5.02605469 -0.04445312 3.86460937 -0.03515625 2.66796875 C-0.02355469 1.78753906 -0.01195312 0.90710938 0 0 Z M5 3 C5 6.63 5 10.26 5 14 C5.66 14 6.32 14 7 14 C7 10.37 7 6.74 7 3 C6.34 3 5.68 3 5 3 Z " fill="#CA0F1D" transform="translate(254,365)"/>
<path d="M0 0 C0.66 0.33 1.32 0.66 2 1 C2.103125 2.216875 2.20625 3.43375 2.3125 4.6875 C2.76219034 9.50437541 4.76696122 11.51826593 8 15 C8 15.66 8 16.32 8 17 C6.1875 17.625 6.1875 17.625 4 18 C3.01 17.34 2.02 16.68 1 16 C1 17.32 1 18.64 1 20 C-0.32 20.33 -1.64 20.66 -3 21 C-4.0067004 18.73192796 -5.00551766 16.46092246 -6 14.1875 C-6.28617187 13.54490234 -6.57234375 12.90230469 -6.8671875 12.24023438 C-8.13711041 9.32243531 -9 7.21734286 -9 4 C-7.125 3.375 -7.125 3.375 -5 3 C-4.34 3.66 -3.68 4.32 -3 5 C-2.814375 4.0409375 -2.814375 4.0409375 -2.625 3.0625 C-2.41875 2.381875 -2.2125 1.70125 -2 1 C-1.34 0.67 -0.68 0.34 0 0 Z " fill="#CB0F1C" transform="translate(331,349)"/>
<path d="M0 0 C2.64 0.33 5.28 0.66 8 1 C8 6.94 8 12.88 8 19 C6.35 18.67 4.7 18.34 3 18 C2.91666643 13.1666528 3.04738513 8.76307437 4 4 C3.34 4 2.68 4 2 4 C2 8.62 2 13.24 2 18 C0.35 18 -1.3 18 -3 18 C-3.11065148 12.57807726 -3.09006648 7.34132574 -2 2 C-1.34 1.34 -0.68 0.68 0 0 Z " fill="#CA0F1D" transform="translate(243,364)"/>
<path d="M0 0 C0.33 1.32 0.66 2.64 1 4 C-0.98 4.99 -0.98 4.99 -3 6 C-2.071875 5.896875 -1.14375 5.79375 -0.1875 5.6875 C3 6 3 6 4.9375 8.1875 C6.15073716 11.39901014 6.20744252 12.8089019 5 16 C1.77208445 18.1519437 0.71599191 18.20086443 -3 18 C-3.2475 17.13375 -3.495 16.2675 -3.75 15.375 C-4.87682178 11.89522738 -4.87682178 11.89522738 -7.1875 8.875 C-9 6 -9 6 -8.9375 3.75 C-6.83463852 -0.17534142 -4.00230863 -0.21634101 0 0 Z M-2 11 C-1.01 11.495 -1.01 11.495 0 12 C0.33 12.66 0.66 13.32 1 14 C1 13.01 1 12.02 1 11 C0.01 11 -0.98 11 -2 11 Z " fill="#CA0F1E" transform="translate(344,345)"/>
<path d="M0 0 C0.721875 0.00257813 1.44375 0.00515625 2.1875 0.0078125 C2.909375 0.00523437 3.63125 0.00265625 4.375 0 C6.1875 0.1328125 6.1875 0.1328125 7.1875 1.1328125 C7.26063567 3.66330652 7.27997527 6.16586087 7.25 8.6953125 C7.24548828 9.40623047 7.24097656 10.11714844 7.23632812 10.84960938 C7.22450864 12.61071263 7.20657263 14.37177286 7.1875 16.1328125 C3.8875 16.1328125 0.5875 16.1328125 -2.8125 16.1328125 C-2.83935095 13.65357449 -2.85926547 11.1746241 -2.875 8.6953125 C-2.88756836 7.63473633 -2.88756836 7.63473633 -2.90039062 6.55273438 C-2.90903588 4.74587691 -2.86470011 2.93893647 -2.8125 1.1328125 C-1.8125 0.1328125 -1.8125 0.1328125 0 0 Z " fill="#FFFFFF" transform="translate(107.8125,242.8671875)"/>
<path d="M0 0 C2.05078125 0.03255208 4.1015625 0.06510417 6.15234375 0.09765625 C6.17919054 2.74355639 6.19910732 5.38918721 6.21484375 8.03515625 C6.22322266 8.78990234 6.23160156 9.54464844 6.24023438 10.32226562 C6.24886816 12.24759938 6.20458708 14.17301206 6.15234375 16.09765625 C5.15234375 17.09765625 5.15234375 17.09765625 1.65234375 17.22265625 C-1.84765625 17.09765625 -1.84765625 17.09765625 -2.84765625 16.09765625 C-2.94740657 13.58629521 -2.98647808 11.1086221 -2.97265625 8.59765625 C-2.97652344 7.89511719 -2.98039062 7.19257813 -2.984375 6.46875 C-2.97221381 0.15709375 -2.97221381 0.15709375 0 0 Z M1.15234375 3.09765625 C1.15234375 6.39765625 1.15234375 9.69765625 1.15234375 13.09765625 C1.48234375 13.09765625 1.81234375 13.09765625 2.15234375 13.09765625 C2.15234375 9.79765625 2.15234375 6.49765625 2.15234375 3.09765625 C1.82234375 3.09765625 1.49234375 3.09765625 1.15234375 3.09765625 Z " fill="#FFFFFF" transform="translate(385.84765625,243.90234375)"/>
<path d="M0 0 C2.05078125 0.03255208 4.1015625 0.06510417 6.15234375 0.09765625 C6.48234375 1.74765625 6.81234375 3.39765625 7.15234375 5.09765625 C5.83234375 5.09765625 4.51234375 5.09765625 3.15234375 5.09765625 C3.15234375 4.43765625 3.15234375 3.77765625 3.15234375 3.09765625 C2.49234375 3.09765625 1.83234375 3.09765625 1.15234375 3.09765625 C1.15234375 4.08765625 1.15234375 5.07765625 1.15234375 6.09765625 C1.95671875 6.24203125 2.76109375 6.38640625 3.58984375 6.53515625 C6.15234375 7.09765625 6.15234375 7.09765625 7.15234375 8.09765625 C7.33984375 11.53515625 7.33984375 11.53515625 7.15234375 15.09765625 C5.15234375 17.09765625 5.15234375 17.09765625 2.15234375 17.34765625 C-0.84765625 17.09765625 -0.84765625 17.09765625 -2.84765625 15.09765625 C-2.84765625 13.77765625 -2.84765625 12.45765625 -2.84765625 11.09765625 C-1.52765625 11.09765625 -0.20765625 11.09765625 1.15234375 11.09765625 C1.15234375 11.75765625 1.15234375 12.41765625 1.15234375 13.09765625 C1.81234375 13.09765625 2.47234375 13.09765625 3.15234375 13.09765625 C3.15234375 12.10765625 3.15234375 11.11765625 3.15234375 10.09765625 C1.50234375 10.09765625 -0.14765625 10.09765625 -1.84765625 10.09765625 C-3.33872082 7.11552712 -2.96707092 4.38155967 -2.84765625 1.09765625 C-1.84765625 0.09765625 -1.84765625 0.09765625 0 0 Z " fill="#FFFFFF" transform="translate(87.84765625,242.90234375)"/>
<path d="M0 0 C6.15234375 -0.09765625 6.15234375 -0.09765625 8 0 C9.89488952 1.89488952 9.18019112 4.57139146 9.23046875 7.08984375 C9 9 9 9 7 11 C5.68 11 4.36 11 3 11 C3 11.66 3 12.32 3 13 C4.98 13 6.96 13 9 13 C9 13.99 9 14.98 9 16 C5.7 16 2.4 16 -1 16 C-1.125 9.25 -1.125 9.25 0 7 C1.65 7 3.3 7 5 7 C4.67 6.01 4.34 5.02 4 4 C2.35 4.33 0.7 4.66 -1 5 C-0.67 3.35 -0.34 1.7 0 0 Z " fill="#FFFFFF" transform="translate(396,244)"/>
<path d="M0 0 C3.37462715 0.54723683 5.08235 1.0549 8 3 C7.67 4.32 7.34 5.64 7 7 C5.68 7.33 4.36 7.66 3 8 C3.66 8.33 4.32 8.66 5 9 C4.67 10.32 4.34 11.64 4 13 C2.68 13 1.36 13 0 13 C-0.66 14.32 -1.32 15.64 -2 17 C-3.65 16.67 -5.3 16.34 -7 16 C-5.35433477 10.31497465 -2.70967216 5.23318364 0 0 Z " fill="#CC0E1B" transform="translate(171,344)"/>
<path d="M0 0 C2.05078125 0.03255208 4.1015625 0.06510417 6.15234375 0.09765625 C6.48234375 1.74765625 6.81234375 3.39765625 7.15234375 5.09765625 C5.83234375 5.09765625 4.51234375 5.09765625 3.15234375 5.09765625 C3.15234375 4.43765625 3.15234375 3.77765625 3.15234375 3.09765625 C2.49234375 3.09765625 1.83234375 3.09765625 1.15234375 3.09765625 C1.15234375 6.39765625 1.15234375 9.69765625 1.15234375 13.09765625 C1.81234375 13.09765625 2.47234375 13.09765625 3.15234375 13.09765625 C3.15234375 12.43765625 3.15234375 11.77765625 3.15234375 11.09765625 C4.47234375 11.09765625 5.79234375 11.09765625 7.15234375 11.09765625 C6.27734375 15.97265625 6.27734375 15.97265625 5.15234375 17.09765625 C2.21484375 17.28515625 2.21484375 17.28515625 -0.84765625 17.09765625 C-2.84765625 15.09765625 -2.84765625 15.09765625 -3.078125 11.875 C-3.05685547 9.97427734 -3.05685547 9.97427734 -3.03515625 8.03515625 C-3.02871094 6.76542969 -3.02226563 5.49570313 -3.015625 4.1875 C-2.79601955 0.14778116 -2.79601955 0.14778116 0 0 Z " fill="#FFFFFF" transform="translate(120.84765625,242.90234375)"/>
<path d="M0 0 C2.33294775 -0.04241723 4.66702567 -0.04092937 7 0 C8 1 8 1 8.09765625 3.06640625 C8.08605469 3.89011719 8.07445312 4.71382812 8.0625 5.5625 C8.05347656 6.38878906 8.04445313 7.21507812 8.03515625 8.06640625 C8.02355469 8.70449219 8.01195312 9.34257812 8 10 C6.35 10.33 4.7 10.66 3 11 C3 11.66 3 12.32 3 13 C4.65 13 6.3 13 8 13 C8 13.99 8 14.98 8 16 C5.03 16 2.06 16 -1 16 C-1 13.36 -1 10.72 -1 8 C0.65 7.67 2.3 7.34 4 7 C3.67 6.34 3.34 5.68 3 5 C1.68 5 0.36 5 -1 5 C-0.67 3.35 -0.34 1.7 0 0 Z " fill="#FFFFFF" transform="translate(371,244)"/>
<path d="M0 0 C1.32 0 2.64 0 4 0 C4 2.31 4 4.62 4 7 C4.66 7 5.32 7 6 7 C6 4.69 6 2.38 6 0 C7.32 0 8.64 0 10 0 C10 5.28 10 10.56 10 16 C8.68 16 7.36 16 6 16 C6 14.02 6 12.04 6 10 C5.195625 10.020625 4.39125 10.04125 3.5625 10.0625 C1 10 1 10 0 9 C-0.07179964 7.48071962 -0.08392007 5.95832518 -0.0625 4.4375 C-0.05347656 3.61121094 -0.04445313 2.78492188 -0.03515625 1.93359375 C-0.02355469 1.29550781 -0.01195312 0.65742188 0 0 Z " fill="#FFFFFF" transform="translate(408,244)"/>
<path d="M0 0 C2.64 0 5.28 0 8 0 C8 1.32 8 2.64 8 4 C6.68 4 5.36 4 4 4 C4 4.66 4 5.32 4 6 C5.32 6.33 6.64 6.66 8 7 C8 7.99 8 8.98 8 10 C6.68 10 5.36 10 4 10 C4 10.99 4 11.98 4 13 C5.32 13 6.64 13 8 13 C8 13.99 8 14.98 8 16 C5.36 16 2.72 16 0 16 C0 10.72 0 5.44 0 0 Z " fill="#FFFFFF" transform="translate(131,243)"/>
<path d="M0 0 C2.475 0.495 2.475 0.495 5 1 C5.50806447 2.72681437 6.00610467 4.45657979 6.5 6.1875 C6.7784375 7.15042969 7.056875 8.11335938 7.34375 9.10546875 C7.96677608 11.85345876 8.12302812 14.19598416 8 17 C6.68 17.33 5.36 17.66 4 18 C3.32678716 15.75194998 2.66165877 13.50147776 2 11.25 C1.62875 9.99703125 1.2575 8.7440625 0.875 7.453125 C0 4 0 4 0 0 Z " fill="#CA0F1D" transform="translate(302,359)"/>
<path d="M0 0 C1.32 0 2.64 0 4 0 C4 5.28 4 10.56 4 16 C2.68 16 1.36 16 0 16 C0 10.72 0 5.44 0 0 Z " fill="#FFFFFF" transform="translate(98,243)"/>
</svg>
